<svg xmlns="http://www.w3.org/2000/svg" viewBox="0 0 400 300" role="img" aria-label="Qiyam: standing, the right hand over the left below the navel">
  <title>Qiyam: standing, the right hand over the left below the navel</title>
  <defs>
    <linearGradient id="shirt-qiyam" x1="0" y1="0" x2="1" y2="0">
      <stop offset="0" stop-color="#DDCBA9"/><stop offset=".55" stop-color="#F2E8D5"/><stop offset="1" stop-color="#DDCBA9"/>
    </linearGradient>
    <radialGradient id="skin-qiyam" cx=".62" cy=".38" r=".75">
      <stop offset="0" stop-color="#D7AC88"/><stop offset="1" stop-color="#C2926C"/>
    </radialGradient>
    <radialGradient id="shadow-qiyam" cx=".5" cy=".5" r=".5">
      <stop offset="0" stop-color="#5A3A22" stop-opacity=".22"/><stop offset="1" stop-color="#5A3A22" stop-opacity="0"/>
    </radialGradient>
  </defs>
  <rect x="70" y="262" width="270" height="6" rx="1.5" fill="#9E4B37"/><rect x="70" y="266" width="270" height="2" fill="#7E3929"/><line x1="78" y1="264" x2="332" y2="264" stroke="#D4A84B" stroke-width="1" stroke-dasharray="6 3"/><line x1="69" y1="264" x2="63" y2="271" stroke="#E6D6B4" stroke-width="1.6" stroke-linecap="round"/><line x1="69" y1="264" x2="66" y2="271" stroke="#E6D6B4" stroke-width="1.6" stroke-linecap="round"/><line x1="69" y1="264" x2="69" y2="271" stroke="#E6D6B4" stroke-width="1.6" stroke-linecap="round"/><line x1="341" y1="264" x2="347" y2="271" stroke="#E6D6B4" stroke-width="1.6" stroke-linecap="round"/><line x1="341" y1="264" x2="344" y2="271" stroke="#E6D6B4" stroke-width="1.6" stroke-linecap="round"/><line x1="341" y1="264" x2="341" y2="271" stroke="#E6D6B4" stroke-width="1.6" stroke-linecap="round"/><g transform="translate(400 0) scale(-1 1)"><ellipse cx="208" cy="263" rx="46" ry="5" fill="url(#shadow-qiyam)"/><path d="M183.5 148 L186.5 202 A10.5 10.5 0 0 0 207.5 202 L210.5 148 A13.5 13.5 0 0 0 183.5 148 Z" fill="#5F4C3C"/><path d="M186.5 201.8 L188.5 251.9 A7.5 7.5 0 0 0 203.5 252.1 L207.5 202.2 A10.5 10.5 0 0 0 186.5 201.8 Z" fill="#5F4C3C"/><path d="M188 262 C187 250 192 247 197 248 C204 251 216 255 222 259 C224 261 223 262 220 262 Z" fill="#C2926C"/><path d="M192.4 83.6 L191.4 119.6 A6.6 6.6 0 0 0 204.6 120.4 L207.6 84.4 A7.6 7.6 0 0 0 192.4 83.6 Z" fill="#BFA67F"/><path d="M194.1 125.4 L213.1 137.1 A5 5 0 0 0 218.9 128.9 L201.9 114.6 A6.6 6.6 0 0 0 194.1 125.4 Z" fill="#BFA67F"/><path d="M215.5 137.6 L224.5 138.2 A4.2 4.2 0 0 0 225.5 129.8 L216.5 128.4 A4.6 4.6 0 0 0 215.5 137.6 Z" fill="#A57754"/><path d="M188 148 L191 202 A11 11 0 0 0 213 202 L216 148 A14 14 0 0 0 188 148 Z" fill="#7B6653"/><path d="M191 202 L194 252 A8 8 0 0 0 210 252 L213 202 A11 11 0 0 0 191 202 Z" fill="#7B6653"/><path d="M194 262 C193 250 198 247 203 248 C210 251 222 255 228 259 C230 261 229 262 226 262 Z" fill="#D7AC88"/><path d="M188 79 C181 92 182 112 184 132 C183 160 182 190 182 214 L221 214 C221 186 220 156 219 134 C221 120 222 100 219 88 C216 78 208 72 200 72 C195 72 191 74 188 79 Z" fill="url(#shirt-qiyam)"/><path d="M182 211 L221 211 L221 214 L182 214 Z" fill="#BFA67F"/><path d="M209.5 74.8 L211.5 60.8 A5.6 5.6 0 0 0 200.5 59.2 L198.5 73.2 A5.6 5.6 0 0 0 209.5 74.8 Z" fill="#C2926C"/><g transform="translate(206 46) rotate(0)">
      <path d="M-12.4 0 C-12.6 -10 -6.4 -15.6 0.6 -15.6 C8 -15.6 12.6 -10.4 12.8 -3 L14.2 2.6 C14.6 4 13.6 4.6 12.8 4.8 L12.6 8.6 C12.4 12.8 9.4 15.4 4.6 15.6 C-1.6 15.8 -6.4 14 -8.6 11.4 C-11.4 8.6 -12.4 4.6 -12.4 0 Z" fill="url(#skin-qiyam)"/>
      <path d="M-13 -2.6 C-13.4 -14.6 -6.6 -17.4 0.4 -17.4 C7.6 -17.4 13.4 -14 13.2 -4.2 C6 -7.4 -5.6 -7.2 -13 -2.6 Z" fill="#FBF8F1" stroke="#E3D7C2" stroke-width="1"/>
      <ellipse cx="-3.6" cy="2" rx="2.9" ry="4.4" fill="#C2926C"/>
    </g><path d="M195.8 83.6 L194.8 120.6 A7.2 7.2 0 0 0 209.2 121.4 L212.2 84.4 A8.2 8.2 0 0 0 195.8 83.6 Z" fill="#DDCBA9" stroke="rgba(74,52,32,0.28)" stroke-width="1"/><path d="M198.6 127.4 L216.4 134.9 A5.6 5.6 0 0 0 221.6 125.1 L205.4 114.6 A7.2 7.2 0 0 0 198.6 127.4 Z" fill="#DDCBA9" stroke="rgba(74,52,32,0.28)" stroke-width="1"/><path d="M217 125 C223 123 229 124 231 128 C231 133 226 135 219 135 Z" fill="#D7AC88" stroke="rgba(74,52,32,0.28)" stroke-width="1" stroke-linejoin="round"/></g><g opacity=".7" transform="translate(0 0)"><path d="M150 26 H38" stroke="#B8860B" stroke-width="1.4" stroke-dasharray="5 4" fill="none"/><path d="M46 20 L36 26 L46 32" stroke="#B8860B" stroke-width="1.4" fill="none" stroke-linecap="round" stroke-linejoin="round"/><text x="38" y="16" font-family="IBM Plex Mono, ui-monospace, Menlo, monospace" font-size="9.5" letter-spacing="1.6" fill="#6B5A47">QIBLA</text></g><path d="M174 130 L296.1 112.9" stroke="#B8860B" stroke-width="1" stroke-dasharray="3 3" fill="none" opacity=".6"/><circle cx="174" cy="130" r="2.4" fill="#B8860B" opacity=".7"/><g>
    <circle cx="335" cy="74" r="54" fill="#FFFDF8" stroke="#B8860B" stroke-opacity=".55" stroke-width="1.2"/>
    <clipPath id="ic33574"><circle cx="335" cy="74" r="53"/></clipPath>
    <g clip-path="url(#ic33574)"><rect x="275" y="14" width="120" height="120" fill="#FBF3E6"/><rect x="275" y="14" width="120" height="120" fill="#F2E8D5"/><circle cx="335" cy="40" r="2.4" fill="#BFA67F"/><text x="341" y="43" font-family="IBM Plex Mono, monospace" font-size="7" fill="#6B5A47">navel</text><path d="M395 70 L341 74 L341 92 L395 94 Z" fill="#DDCBA9"/><path d="M343 76 L301 76 C291 78 291 90 301 92 L343 91 Z" fill="#A57754"/><path d="M275 94 L311 88 L313 108 L275 116 Z" fill="#DDCBA9" stroke="rgba(74,52,32,0.28)"/><path d="M309 86 C321 66 349 66 359 72 L359 86 C347 90 327 102 313 108 Z" fill="#D7AC88" stroke="rgba(74,52,32,0.28)"/><path d="M352.6 74.4 L362.9 84.1 A3 3 0 0 0 367.1 79.9 L357.4 69.6 A3.4 3.4 0 0 0 352.6 74.4 Z" fill="#D7AC88" stroke="rgba(74,52,32,0.28)" stroke-width="1"/><path d="M352.7 85.9 L361 95.6 A2.6 2.6 0 0 0 365 92.4 L357.3 82.1 A3 3 0 0 0 352.7 85.9 Z" fill="#D7AC88" stroke="rgba(74,52,32,0.28)" stroke-width="1"/><path d="M330.3 73.1 L348.4 76.7 A2.8 2.8 0 0 0 349.6 71.3 L331.7 66.9 A3.2 3.2 0 0 0 330.3 73.1 Z" fill="#D7AC88" stroke="rgba(74,52,32,0.28)" stroke-width="1"/><path d="M332.3 79.1 L350.4 82.7 A2.8 2.8 0 0 0 351.6 77.3 L333.7 72.9 A3.2 3.2 0 0 0 332.3 79.1 Z" fill="#D7AC88" stroke="rgba(74,52,32,0.28)" stroke-width="1"/><path d="M275 126 L395 126" stroke="#BFA67F" stroke-width="1" stroke-dasharray="3 3"/></g>
    <text x="335" y="141" text-anchor="middle" font-family="IBM Plex Mono, ui-monospace, Menlo, monospace" font-size="8.5" letter-spacing="1.2" fill="#6B5A47">RIGHT OVER LEFT</text>
  </g>
</svg>
